<?xml version="1.0" encoding="UTF-8"?>
<svg version="1.1" xmlns="http://www.w3.org/2000/svg" width="60" height="60">
<path d="M0 0 C19.8 0 39.6 0 60 0 C60 19.8 60 39.6 60 60 C40.2 60 20.4 60 0 60 C0 40.2 0 20.4 0 0 Z " fill="#288734" transform="translate(0,0)"/>
<path d="M0 0 C3.140625 1.42578125 3.140625 1.42578125 6.25 3.3125 C7.28640625 3.92738281 8.3228125 4.54226562 9.390625 5.17578125 C12 7 12 7 14 10 C14.27470888 12.67768864 14.41578043 15.19625281 14.4375 17.875 C14.47037109 18.58269531 14.50324219 19.29039063 14.53710938 20.01953125 C14.57689391 23.90394899 14.19823518 25.74776402 11.77734375 28.828125 C6.82605908 32.70001569 1.88662719 35.84535926 -4.5 36.1875 C-10.49411476 34.15378249 -16.43443935 31.34834098 -20 26 C-20.81018446 20.42130131 -21.38962388 14.5293134 -20 9 C-17.17791781 5.4881925 -14.08496632 3.7887201 -10 2 C-9.03320312 1.42572266 -9.03320312 1.42572266 -8.046875 0.83984375 C-5.16215392 -0.34377272 -3.10004001 -0.32774055 0 0 Z " fill="#E6F1E8" transform="translate(33,12)"/>
<path d="M0 0 C0.75667969 0.30292969 1.51335938 0.60585938 2.29296875 0.91796875 C4.29815571 1.71946484 6.30491082 2.51704014 8.3125 3.3125 C11 6 11 6 11.37890625 9.15234375 C11.37532048 12.45483701 11.25688181 15.70810713 11 19 C9.72791378 18.37755401 8.45738118 17.75193233 7.1875 17.125 C6.47980469 16.77695312 5.77210937 16.42890625 5.04296875 16.0703125 C3 15 3 15 0 13 C-0.29296875 9.9609375 -0.29296875 9.9609375 -0.1875 6.375 C-0.16042969 5.18648437 -0.13335938 3.99796875 -0.10546875 2.7734375 C-0.07066406 1.85820312 -0.03585938 0.94296875 0 0 Z " fill="#2B8937" transform="translate(17,25)"/>
<path d="M0 0 C0 4.29 0 8.58 0 13 C-3.63 14.98 -7.26 16.96 -11 19 C-11.87908131 10.3850032 -11.87908131 10.3850032 -11 6 C-8.30844495 3.29884939 -4.04610861 0 0 0 Z " fill="#298835" transform="translate(43,25)"/>
<path d="M0 0 C3.29680965 0.65784963 5.84117922 1.89420573 8.75 3.5625 C9.94882812 4.24505859 9.94882812 4.24505859 11.171875 4.94140625 C11.77515625 5.29074219 12.3784375 5.64007813 13 6 C13 6.66 13 7.32 13 8 C9.8040576 9.00772958 8.42822437 9.19442012 5.32421875 7.78515625 C4.45410156 7.21667969 3.58398438 6.64820313 2.6875 6.0625 C1.80449219 5.49660156 0.92148437 4.93070313 0.01171875 4.34765625 C-0.65214844 3.90292969 -1.31601562 3.45820313 -2 3 C-1.34 2.01 -0.68 1.02 0 0 Z " fill="#348E3F" transform="translate(21,19)"/>
<path d="M0 0 C5.15464734 0.48324819 8.81550319 3.18610761 13 6 C12.01 7.485 12.01 7.485 11 9 C6.50202887 7.31326082 2.27113698 5.18326108 -2 3 C-1.34 2.01 -0.68 1.02 0 0 Z " fill="#389043" transform="translate(28,15)"/>
<path d="M0 0 C0.33 0 0.66 0 1 0 C1 2.64 1 5.28 1 8 C-1.64 8 -4.28 8 -7 8 C-6.01 7.34 -5.02 6.68 -4 6 C-1.66858245 3.93759216 -1.0192827 3.05784811 0 0 Z " fill="#E4F0E5" transform="translate(59,52)"/>
<path d="M0 0 C0.99 1.485 0.99 1.485 2 3 C3.32381517 4.67423683 4.65576661 6.34211215 6 8 C4.02 8 2.04 8 0 8 C0 5.36 0 2.72 0 0 Z " fill="#ECF4ED" transform="translate(0,52)"/>
<path d="M0 0 C2.64 0 5.28 0 8 0 C8 1.98 8 3.96 8 6 C7.236875 5.38125 6.47375 4.7625 5.6875 4.125 C3.00374191 1.94402948 3.00374191 1.94402948 0 0 Z " fill="#ECF4ED" transform="translate(52,0)"/>
<path d="M0 0 C1.98 0 3.96 0 6 0 C4.35830472 2.02054804 2.69088222 4.02043058 1 6 C0.67 6 0.34 6 0 6 C0 4.02 0 2.04 0 0 Z " fill="#F6FAF7" transform="translate(0,0)"/>
</svg>
